<svg fill="none" height="108" viewBox="0 0 182 108" width="182" xmlns="http://www.w3.org/2000/svg"><g clip-rule="evenodd" fill-rule="evenodd"><path d="m1.35 99.75v-35a6.69 6.69 0 0 1 6.65-6.75h165.92a6.69 6.69 0 0 1 6.68 6.69v35a6.69 6.69 0 0 1 -6.68 6.69h-165.92a6.69 6.69 0 0 1 -6.65-6.63z" fill="#fffffe"></path><path d="m8 57.67h165.91a7 7 0 0 1 7 7v35a7 7 0 0 1 -7 7h-165.91a7 7 0 0 1 -7-7v-35a7 7 0 0 1 7-7zm172.22 7a6.34 6.34 0 0 0 -6.34-6.34h-165.88a6.34 6.34 0 0 0 -6.31 6.38v35a6.34 6.34 0 0 0 6.31 6.38h165.91a6.34 6.34 0 0 0 6.34-6.34z" fill="#141517"></path><path d="m22 90.58h-3.65l-.09-.09v-7.86c0-2.25 0-3.54-.09-4.83l.11-.11c1.59 0 2 0 3.63-.06l.11.11c0 1-.09 2.51-.09 5.24 0 2.49 0 5 .11 7.46l-.09.09m8.53-9.67a2.94 2.94 0 0 0 -2.44-.8 1.12 1.12 0 0 0 -.82.97c0 .61.47 1 1.33 1.61 1.64 1.17 2.7 1.9 2.7 3.91a4.36 4.36 0 0 1 -1 2.88 4.6 4.6 0 0 1 -3.65 1.36 6.33 6.33 0 0 1 -2.74-.56l-.11-.16c0-.48.07-1 .09-1.42s0-.8 0-1.21h.12c.6.54 1.39.83 2.2.82a1.26 1.26 0 0 0 1.45-1.26c0-.65-.49-1-1.2-1.52l-.73-.48a4.28 4.28 0 0 1 -.94-6.44 4.24 4.24 0 0 1 3.14-1.06c.97-.03 1.93.18 2.81.6l.07.13c0 .45-.07.91-.09 1.36l-.05 1.26h-.14m8.17 9.67v-5.4c-.78-.04-1.55-.04-2.33 0v5.31l-.09.11h-3.56l-.11-.11v-.67c0-1.78.05-4 .05-6.22 0-1.93 0-3.86-.08-5.78l.08-.11c1.56 0 2 0 3.58-.06l.11.11v4.6h2.33c0-.63-.07-3.82-.07-4.52l.08-.11c1.72 0 2.15 0 3.6-.06l.09.11c-.06 2.51-.06 5-.06 7.06 0 1.87 0 3.76.06 5.62l-.11.11h-3.54l-.11-.11m12.97-5.15h-3.16v2.62c.87 0 2.75 0 3.82-.11l.11.11a40.09 40.09 0 0 0 -.14 2.62l-.11.11h-7.24l-.09-.11c0-1.36.07-2.87.07-5.78 0-2.29 0-4.73-.12-6.89l.11-.11h7.17l.09.11c-.05 1.18-.05 1.48-.12 2.41l-.1.11h-3.41v2.38c1 0 2.5 0 3.28-.07l.11.11c-.07 1-.07 1.38-.12 2.38l-.11.11m6.73-7.55h-4.35l-.07.11c.11 1.9.13 5.25.13 6.42 0 1-.07 5.36-.09 6.25l.1.11h3.48l.08-.11c-.1-1.64-.1-2.23-.1-4.47l.51-.01.41 1.14a228.88 228.88 0 0 0 1.05 3.42l.13.11c1.59-.09 2-.11 3.66-.16l.08-.13c-.72-1.44-1.24-2.76-1.58-3.6l-.71-1.82a3.67 3.67 0 0 0 1.62-3.38c0-.81-.1-2.64-1.53-3.41a6.25 6.25 0 0 0 -2.82-.47zm1.24 4.06a1.6 1.6 0 0 1 -1.16 1.74 3 3 0 0 1 -.9 0c0-.9.07-2.38.07-3.29.23-.02.46-.02.69 0a1.12 1.12 0 0 1 1.1.53 2 2 0 0 1 .2 1.02zm68.94-4.06h-4.34l-.08.11c.11 1.9.13 5.25.13 6.42 0 1-.07 5.36-.09 6.25l.11.11h3.47l.08-.11c-.11-1.64-.11-2.23-.11-4.47h.53l.41 1.14.85 2.8c.06.22.13.42.2.62l.13.11c1.59-.09 2-.11 3.66-.16l.08-.13c-.72-1.44-1.24-2.76-1.58-3.6l-.71-1.82a3.67 3.67 0 0 0 1.62-3.38c0-.81-.1-2.64-1.53-3.41a6.25 6.25 0 0 0 -2.83-.48zm1.24 4.06a1.6 1.6 0 0 1 -1.16 1.74 3 3 0 0 1 -.89 0c0-.9.07-2.38.07-3.29.23-.02.46-.02.69 0a1.1 1.1 0 0 1 1.1.53 2 2 0 0 1 .19 1.02zm-58.73 2.87.77-3.89.27-1.26c0-.23.25-1.38.3-1.63l.11-.11c2 0 2.59 0 4.51-.06l.1.11c0 1.11.06 1.6.13 3.58l.12 2.77c.16 3.64.24 4.58.34 6.33l-.1.11h-3.42l-.09-.11c0-2.85 0-3.14-.11-5.51v-3.64l-1.12 5.2c-.18.86-.49 2.4-.79 4l-.12.11h-2.51l-.11-.11c-.14-.71-.17-.85-.46-2.09l-.38-1.71-1.12-5.22-.07 3.26c-.06 3.82-.06 4.24-.06 5.71l-.09.11h-2.8l-.11-.11.27-5.53.14-4v-3.18l.11-.11c1.91 0 2.41 0 4.57-.06l.13.11c.13.67.18.91.64 3zm14.47 2.78c.23 1.17.37 1.89.57 3.11l.11.09c1.68 0 1.84 0 3.34-.07l.09-.11c0-.14-.2-.76-.23-.89l-.63-2.56-.8-3.21c-.5-1.94-.56-2.16-1.34-5.29a5.69 5.69 0 0 1 -.18-.71l-.11-.11c-1.79.06-2.13.06-4.31.06l-.11.09a487.63 487.63 0 0 1 -1.66 6.13l-.82 3c-.56 2.11-.63 2.38-1 3.54l.09.09h3.19l.1-.11c.18-1 .4-2 .65-3.06zm-.54-2.56h-2.07l.51-1.85c.4-1.57.46-1.86.66-2.82.16 1 .22 1.32.5 2.67l.44 2zm8.36-1.31.11 2.65c0 2.17.07 2.28.16 4.28l-.13.11h-2.82l-.11-.11v-9.25c0-1.09 0-2.26-.09-3.38l.11-.11c1.39 0 1.81 0 3.22-.06l.14.09c.55 1.08.81 1.49 2.22 3.79l1.72 2.71-.08-3.08c0-.47-.07-2.82-.1-3.34l.1-.11 2.72-.06.11.11v8c0 2.4 0 3.69.06 4.71l-.11.11h-2.93l-.13-.11c-.84-1.51-1.27-2.23-2.11-3.63l-2-3.35m16.97-2.65a2.94 2.94 0 0 0 -2.44-.8 1.13 1.13 0 0 0 -.82.97c0 .61.47 1 1.33 1.61 1.64 1.17 2.7 1.9 2.7 3.91a4.36 4.36 0 0 1 -1 2.88 4.59 4.59 0 0 1 -3.65 1.36 6.33 6.33 0 0 1 -2.74-.56l-.11-.16c0-.48.08-1 .09-1.42v-1.21h.13c.6.54 1.39.84 2.2.82a1.27 1.27 0 0 0 1.45-1.26c0-.65-.5-1-1.2-1.52l-.73-.51a4.27 4.27 0 0 1 -1-6.44 4.24 4.24 0 0 1 3.14-1.06c.97-.03 1.94.18 2.81.6l.07.13c0 .45-.07.91-.09 1.36l-.05 1.26h-.14m28.12 9.76h-3.64l-.09-.09c0-2.62.02-5.24.05-7.86 0-2.25 0-3.54-.09-4.83l.11-.11c1.59 0 2 0 3.63-.06l.11.11c0 1-.09 2.51-.09 5.24 0 2.49 0 5 .1 7.46l-.09.09m9.19-5.28h-3.16v2.62c.88 0 2.75 0 3.82-.11l.11.11a40.09 40.09 0 0 0 -.14 2.62l-.11.11h-7.24l-.08-.11c0-1.36.07-2.87.07-5.78 0-2.29 0-4.73-.13-6.89l.11-.11h7.16l.09.11c-.08 1.18-.08 1.48-.08 2.41l-.11.11h-3.41v2.38c1 0 2.5 0 3.29-.07l.1.11c-.07 1-.07 1.38-.12 2.38l-.11.11m5.04-1.71.11 2.65c.05 2.17.07 2.28.16 4.28l-.12.11h-2.83l-.11-.11v-9.25c0-1.09 0-2.26-.09-3.38l.11-.11c1.4 0 1.81 0 3.22-.06l.14.09c.56 1.08.81 1.49 2.22 3.79l1.72 2.71-.08-3.08c0-.47-.06-2.82-.1-3.34l.1-.11 2.72-.06.11.11v12.71l-.11.11h-2.93l-.13-.11a106.4 106.4 0 0 0 -2.1-3.63l-2-3.35m13.53-5.77h-3.79l-.09.11c.07 2.78.07 5.58.07 8.38v4.29l.09.11h4.06c1.48 0 3.33-.13 4.62-1.87a8.52 8.52 0 0 0 1.14-4.76c0-1.95-.31-4.77-2.69-5.79a8.63 8.63 0 0 0 -3.41-.47zm2.32 5.93a8.88 8.88 0 0 1 -.52 3.27c-.46.89-1.14 1-2 .91-.05-2.47-.05-4.95-.05-7.42h.55c1 0 1.65.38 1.9 1.8.08.48.12.96.12 1.44zm-152.06.94h-3.92v3.8c0 .54.11 3.8.11 4.42l-.16.16c-1.82 0-1.79 0-3.64.08l-.13-.16v-8.49c0-5.15 0-6.73-.18-10.75l.16-.14h5.82l3.56-.1.16.16c-.11 1.47-.14 1.9-.16 3l-.19.16c-1.45 0-1.68 0-4.53-.08h-.9c0 2.28-.05 2.79 0 4.77 1.61 0 2.47 0 4.1-.08l.16.14c-.1 1.31-.13 1.61-.16 3l-.18.16m105.69-.05h-3.91v3.8c0 .54.1 3.8.1 4.42l-.15.16c-1.82 0-1.79 0-3.64.08l-.13-.16v-8.49c0-5.15 0-6.73-.18-10.75l.16-.14h5.82l3.56-.1.16.16c-.11 1.47-.14 1.9-.16 3l-.19.16c-1.45 0-1.68 0-4.53-.08h-.9v4.77c1.61 0 2.47 0 4.1-.08l.16.14a35.76 35.76 0 0 0 -.16 3l-.19.16m52.59 6.58a1.76 1.76 0 0 0 -3.49-.34 1.76 1.76 0 1 0 3.49.34zm-1.76 1.41a1.41 1.41 0 1 0 -.02-2.83 1.41 1.41 0 0 0 .02 2.83zm.09-2.32h-.88v1.85h.38v-.76h.1c.22 0 .33.09.52.46l.15.3h.47l-.26-.44c-.12-.22-.2-.32-.35-.37a.52.52 0 0 0 .5-.51c0-.3-.18-.53-.63-.53zm.23.54c0 .14-.12.25-.32.25h-.41v-.5h.34c.23 0 .39.08.39.25zm-71.58-11.71-.13-.47v-.14a2.7 2.7 0 0 0 .87-2 1.68 1.68 0 0 1 -1-1.58 1.61 1.61 0 0 1 1.68-1.61 1.9 1.9 0 0 1 1.91 2.16c0 1.83-1.14 3.13-3.22 3.68h-.11m-86.43 13.8h96.34v-1.27h-96.34zm105.64 0h48.68v-1.27h-48.68z" fill="#d6332f"></path><path d="m160.19 64.2c-.23-.7 0-.34.48-.77.13-1.34-2.11-1.51-3.16-1.53l-.06-.08c.28-.13.63-.33.63-.73a.9.9 0 0 0 -.87-.81c.08-.07.18-.13.28-.18-.13-1.23-2.25-.48-3.07-.4v.06c-.19 0-.37-.08-.55-.11a7.08 7.08 0 0 1 -2.05-.9c-.74-.34-2-.24-2.62-.67s-.17-1.19-1-1.36c-.63-.14-1.78.93-2.15.18-1.11.08-2.35.42-2.23-1-1.1-.32-1.56.44-2.41.33l.07-1.25.72-1.78.33-.64.21-.5.12-.67.31-.78 1.12-2.76.71-1.55 1-2.42.55-1.11.3-.2.46-.36.35-.41.28-.48.21-.59.09-.55v-1l-.16-.69-.21-.47-1-1.47.33-1.06.06-.54-.08-.62-.19-.58-.12-.84-.18-.51-.3-.48-.28-.31-.26-.22-.37-.21-.48-.18-.45-.06-.71.07-.88.23-1.9.23-1.5.14-3-2.7-4.33-4-1.49-1.31-3.87-3.56-5.22-4.7-4.73-4.28-6-5.49-.14-.48-.35-.83v-.51l-.08-.55-.25-.66-.19-.34-.3-.36-.35-.31-.56-.32-.48-.11-.72-.1h-.72l-1 .11h-.77l-.61.14-.54.23-.36.25-.29.3-.28.39-.23.51-.17.65v.54l.11 1.32-3.64 4.47-.83.25h-.36l-.56.14-.53.25-.86.43-.36.28-.66.68-4 1.78-2.38 1.08-6.11 2.7-6.3 2.72h-1.11l-1.22.07-1 .12-1.7.39-1.27.44-1.81.76-1.4-.54-.54-.36-.46-.18-.43-.07h-.57l-.54.15-.33.16-.33.25-.92 1-.3.46-.33.69-.14.62-.08 1.53v1.39l.14.76.42 1.31-1.52 1.73-5.61-2.48-.45-1.08-.44-.68-.22-.6-.23-.46-.26-.32-.4-.36-.37-.22-.48-.18-.59-.08-.56.06-.48.14-.4.19-.73.52-.62.64-.46.65-.21.45-.2.69-.16 1.32-4.89 4.27-2.06.46-.72.24-.37.21-.28.25-.26.32-.19.34-.14.47-.06.8-.13.42-.12.57v1.39l-1 .83-.28.38-.25.5-.12.42-.07.89-1.16 2.14-2.89 4.8-.26.5-.12.39-.05.53.06.68 1.46 4.91.27 1.15c-.85-.22-.6 1.24-1.54 1.2-.12.33-.3.35-.44.67-1.07.28-2.06-1.86-2.8-.16-1.61-.57-1.44.77-3.1.47-.71.1-1-.13-1.72.18-.86.37-.64 1.51-.52 2a2.4 2.4 0 0 0 -.69.16c-.51.22-.57.75-.84.94-.5.34-1.79 0-1.77 1s1.28.57 1.14 1.41c0 .19-.68.66-.5 1s.87.19 1.14.34c-.84.6-1.23 1.43-.06 2 .77.36 2.91.84 3.59.46-.37 1.17 1.29 1.72 2.81 1.92a8 8 0 0 0 4.39 1c1.35 0 7.92-.89 13 .83s12.8 1.48 18.91 1.22 30.33-2.39 43.2-.9c7.67.89 18.57-.08 18.57-.08s18 .78 24-4.17a18 18 0 0 0 3.19-.73c.53.15 1.08.19 1.62.12.77 0 2.79-.24 2.61-1.37a6 6 0 0 0 2.5-.6c.13-.83-.42-1-.64-1.67" fill="#fffffe"></path><path d="m134.8 60.28h.73l.5-.17c.14-.1.29-.2.44-.28h-.23l-.3-.13h-.85l-.46-.07v.39l.08.11.08.05" fill="#d6332f"></path><path d="m36.71 58.57-.42-1.57-.23-.63-.22-.86.06-.06.17.31.88.35 2.42.52 3.35.83.74.22 9 1.3 2.63.18 3.29.38h1.86l2 .11 2-.07h7.14l3.62-.03.94-.07h.71l5-.22 4.24-.26 1.81-.09 4.52-.54 1.11-.14 2.4-.19 4.57-.53 1.66-.19 4.56-.67 33.82-5.43h.15l.07.07-.15.5-.18.48-.12.2-.57 1.67-.36 1.43h-.07l-.12-.15h-.19l-1.27.64-.13.1-.06.1v.17l.08.08h.18l.37-.14h.41l.16.08h.17l.22-.07-.1.41h-.67l-.54-.12h-.61l-.33-.08-.3.08-.09.08v.25l.07.25.09.13.32.25.16.07h.1l.29-.2.11-.05h.41l.15.06.19.29.11.11.18.06h.08l-.08.31h-.06l-.11.2v.54l-.13.48h-.12l-.44-.12h-.06v-.08l.05-.31v-.16h-.25l-.16-.06-.09-.13v-.05l.4-.37v-.12l-.05-.16-.11-.11h-.46l-.61-.34h-.15l-.05.05v.36h-.46l-.32.3-.06.08v.21l.19.08v.12h-.1l-.86-.41v-.08l.28-.24.22-.09v-.18l-.54-.4-.41-.23h-.54l-.15.08-.41.42-.12.34-.06.06-.28.17-.18.35-.06.08-.46.29-.07.1v.13l.06.09h.07l.51-.16 1-.35h.13l.47.42.33.21h-.37l-.12.08-.4.33-.47.25-.43.16-.91.14.06-.2.15-.18.08-.17v-.21l-.12-.14h-.51l-.64.42-.05.09v.13l.3.07.25.28-.36.05-.57-.13-.06-.41-.14-.56v-.22l-.07-.06h-.12l-.32.18-1.4.57h-.08v-.36l-.05-.18-.12-.16h-.18l-.3.18-.11.12-.25.72v.11l.09.1.28-.13h.18l-.15.09-.51.16-.79.1-.44.13-.17.08-.22.18-.15.16s-2.46.52-3.8.88a3.2 3.2 0 0 0 -.51.2c-3.8.11-7.58-.1-11.34-.64-1.91-.23-3.9-.46-6.16-.62-.72-.17-1.45-.29-2.18-.35a3.27 3.27 0 0 0 -2.28 0 4.58 4.58 0 0 0 -1.46-.26 1.37 1.37 0 0 0 -1.47 0c-.48-.25-2.11.38-2.11.38a6.79 6.79 0 0 0 -1.91.21c-1.8.11-3.75.27-5.89.49v-.14a.64.64 0 0 0 -.81-.47c-.2.01-.38.05-.56.13-.05 0-.06 0 0 0a.32.32 0 0 0 0 .58l-.74.09c-16.64 3.05-27 2-32.81.79l-.23-.07a23.73 23.73 0 0 0 -3.09-.77c-.49-.5-2.44-.63-2.44-.63a1.52 1.52 0 0 0 -1.46-.38c-.49-.51-2.28 0-2.28 0a2.23 2.23 0 0 0 -.5-.17c.04-.05.06-.1.06-.17 0-.21-.24-.38-.54-.38s-.53.16-.54.37h-.27a.81.81 0 0 0 -.31-.15l.06-.14v-.21l-.13-.14h-.51l-.63.41v.08h-.23a1.23 1.23 0 0 0 -.54-.12l-.27-.82-.18-.04zm98.66-2.93.63-.42h.51l.13.13v.21l-.07.17-.16.18-.13.43h-.23l-.42-.46-.29-.08v-.13zm-4.14.22-.64.41-.05.09v.14l.3.07.42.46h.23l.13-.43.15-.18.08-.17v-.25l-.12-.14-.34-.05zm2.73.7.24-.44.18-.17.17-.09h.14l.09.06.08.15.06.36v.37l-.07.17h-.13l-.28-.14h-.29l-.14-.06-.08-.12zm1.4.12-.06.11v.21l.05.12h.07l.6-.09.09-.1.05-.14v-.22h-.11l-.51.06zm-1.84 4.07-.52-.15-.3.06-.38.16.68.18.69-.1-.2-.14m-60.36-35.09-1.41.26-2.24.62-.31.17-.07.12v.63l.14.46.19.21h.26l.42-.12.49-.02.12-.08v-.68l.15-.22.41-.19.42-.1.6-.07h.9l1.38.19.14.08.1.12.21.42 1.14.06 1.7.22 1.73.38.14-.06.09-.49v-.91l-.18-.16-.32-.18-.76-.33-1.57-.33-1.84-.08-2 .08" fill="#d6332f"></path><g fill="#141517"><path d="m147.59 67.89c-1 .1-5.14.36-9.7.5-1.06.16-2 .26-2 .26l4.11.35c-1.56.35-3.13.6-4.72.76l2.76.51c-2.18.07-4.85.06-6.71 0-1.63.19-4.35.26-4.35.26l4 .76c-.64.09-1.31.15-2 .2 12.26-.54 20-3.82 18.58-3.68m-54.56.99 4.25-.8-4-.49 4.72-.22-1.18-.29c-1.8.07-3.61.25-5.4.54-9.55 1.7-25.61 1.53-33.64-.34-2.32-.49-4.7-.7-7.07-.65l.47-.15h.53l.44-.08.16-.07.14-.13v-.14l-.12.02-.61-.12h-1.07l-.75-.27h-.45l-.22.13-.05.22.06.11.1.06.28.07.69.38c-.68 0-1.36 0-2 .07v-.06l-.28-.17-.63-.16-.3-.44-.16-.11h-.12c.73-.07 1.48-.14 2.24-.19h-.35 1.71c1.49 0 3.1.09 3.1.09l-.58-.14-2.4-.6-.93-.23c1.6-.07 3.2-.05 4.81.05l-1-.33a18 18 0 0 0 -3.5-.08c-1.89.17-3.61.24-5.17.24-.11.08-.24.14-.37.17h-1.88l.08-.09v-.13h-.43l-.24.13-.49.14h-1.2c-.3-.06-.51-.12-.51-.12a.37.37 0 0 1 -.07.14c-.49.74-2.42.28-2.42.28a3.44 3.44 0 0 1 -3-.34c-1.41.6-1.85-.34-1.85-.34a.67.67 0 0 1 -.73-.3c-.88.51-1.33 0-1.33 0a1.88 1.88 0 0 1 -1.53.12l.13-.13-.05-.13h-.41l-.15.07h-.05c-.14.07-.29.13-.44.18h-.15c-.32.12-.68.12-1 0-1.24.15-2.74.32-3.78.41 0 0 2.45.23 4.4.28l.12.09h.07l.51-.08h.09a6 6 0 0 0 .62 0c-1.39.23-3.92.7-4.94.74 2.56.16 5.14.16 7.7 0-1.44.45-4.53 1-4.53 1l4.68.39c-1.26.35-2.53.64-3.82.85a33.42 33.42 0 0 0 7.56-.35h.35c.23 0 .49 0 .78-.08l.12.11.36.09h.85l.93-.31.12-.12v-.16c1.81-.29 4.07-.67 6.57-1l-.59.29-.16.17-.08.26v.12l.13.1.34.09h.07c-2.74.26-5.46.66-8.16 1.2 1.84-.29 3.7-.43 5.57-.42v.07l.07.13.22.17.13.27.13.06.15-.09.19-.45.18-.3h.57l-.08.1.19.23v.59a56.06 56.06 0 0 0 -14.26.8c1.11-.25 5.6 0 10.91.49h-.08c1.6-.1 3.22-.1 4.83 0l-2.59-.93c3.7.46 8.78 1.39 8.78 1.39l-4.34.09 1.77.46c7 .71 14 .56 12.61.41-4.53-.3-9.03-.96-13.45-2a31.09 31.09 0 0 0 -3.83-.59l.27-.18h.24l.16-.08.14-.15v-.33l-.24-.24h-.09c4.12.34 7.74 1.35 12.18 2.15h-.18l-.32.09-.15.08-.06.1v.13h.88l.17-.1.08-.11v-.1h-.07c1 .17 2 .34 3.13.48l1.83-.16-4-.76 4.73.19-3-.92c2.34.11 2.35.25 9.76.53-1.52.24-4.81.32-4.81.32l4 .76c-1.6.2-3.2.3-4.8.31l.39.12c4.8.25 9.6.06 14.37-.57 6.55-.84 13.78-1.5 13.78-1.5zm-7.91 2.14s19.32-1.19 24.74 0c0 0-10-3.39-24.74 0zm-53.45-10.01c-1.21.15-3.75.46-5.28.59 0 0 1.39.13 2.9.22.79-.62 2.45-.14 2.45-.14.11-.5 1.19-.5 1.19-.5a1.22 1.22 0 0 1 1.37-.1c-.2-.41-.39-.74-.39-.74s-5.13.34-8.71.17c2.14.37 4.3.54 6.47.51"></path><path d="m151.07 64.07c1.21.15 3.75.46 5.28.59-1.98.2-3.96.28-5.95.25 1.8.33 3.62.55 5.45.67-2.68.6-5.41.94-8.16 1-1.69.17-3.82.31-6.47.4l-.05.1-.19.09h-.57l-.39.23h-.19l-.25-.08-.26-.32v-.18l.1-.09.65-.08-.08-.31v-.2l.01-.14.13-.08h.41l.84.13v.06h5.39l-2.77-.56 1.18-.14h-.86l-1.11-.17-.29-.15h-.55l-.31-.22-.34-.1-1.11.06-.21.07-1 .21 2.66.25h-.16c-2.59.13-4 .17-5 .19h-1.82l-.68.07 2.9.6-4.72.25 4.07.39-1.4.25h-.85l1.39.12.09.06v.12l-.21.11-.45.14h-.22l-1-.19-.09-.08v-.23l.07-.07h.42-1.32l.22.31.29.15.1.08v.13l-.11.07h-.24l-.66-.11-.77-.19-.4.14h-.95l-.18-.06-.13-.12-.06-.17v-.15h-.73l.08.13v.32l-.16.06h-1.87l-.49-.09-.14-.07v-.22l.11-.07.31-.07h.3-1.1l.05.08v.24l-.1.11-.15.08h-1.67l-.17-.05-.06-.1v-.27l.1-.12h.19c-2.3 0-4.61-.13-6.72-.27l-.58.18h-1.64l-2.93.22-.34.08c6.71.38 12.84 1 15.58 1.1 1.15.06 2.48.09 3.89.09l2 .42-4.72.25 4.07.39-3.64.65c-5.33-.22-5.57-.34-7.66-.44l3 .92-4.73-.19 4 .76-3.11.26-.89-.05c-9.25-1.15-13.67-2.14-18.35-2.53l-2.75-.62c1.6-.16 3.18-.42 4.74-.79l-4.03-.56.89-.11c2.41 0 5 .06 7.51.16l-.63-.17-.2-.16v-.3h.08l.6-.14h.45l.75.06 1.13-.08 1.13-.14-1.2-.35-.26.07-2.58.14-.55.02-.57-.09-.19-.07-.14-.11v-.18l.06-.11.5-.16-1.4-.2-.69.12-.55-.07-.93-.28h-1.2l-1.68.15-2 .28-1.31.31h-.37l-.13-.14v-.17l.11-.12.17-.09.59-.2c-.61 0-1.24.08-1.9.14l-.28.13-.5.08h-1.08l-1.73.22-8 1.08h-.52c1.55-.25 3.1-.59 4.61-1h-4.01s3.2-.58 4.61-1c-7.31.94-7.36.83-9.67 1.11l3.15.3-4.67.59h1.43l.59-.1h.28l.2.07h1.63l-1.75.43-.05.05v.08l.37.08.19.09v.19l-.34.07-.64.54h-.19l-.25-.24-.33-.11-.12-.1-.11-.21-.08-.08h-.17l-.62.06-.2.13-.25.35-.14.11-.28.07h-.33l-.51.09h-.07l-.25-.36-.15-.17-.8.05-.59.2-.75.19-.34.11-.66-.11h-.32l-.27.05-.16-.05v-.15l.23-.3h-.24c-1 0-1.87 0-2.74-.07l-.4.25-.34.08h-.36l-.3-.08-.1-.12v-.11l.07-.08.1-.07c-2.57-.29-7-1.29-7-1.29l-3.35-.83-.55-.14h4c3.58.3 7.19.16 10.73-.43l1.15-.18h.33l.82-.13h.33l.95-.14h.13l1.08-.16h.18l.86-.12h.25l.85-.12h.14l2-.25h.16l.82-.09h.11l1.8-.19h.04l.79-.08h.09c.84-.08 1.65-.14 2.41-.18h.81c.5 0 1.15.1 1.71.19 0 0 .33.6 1.52.34a1.47 1.47 0 0 0 1.41-.17c.55.21 1.16.27 1.74.17a2.84 2.84 0 0 0 2.6.26 2 2 0 0 0 1.85.08c.28-.15.58-.25.9-.28 2.55.27 5.53.56 8.56.77l1.81.57-4.66-.21.23.06 3.3.64.74-.17 1.11-.12.17.05.32.25.5.1.08.08v.15l-.11.09-.33.09c1.54 0 3.08-.1 4.61-.29l-4-.78s2.44 0 4.08-.21h.76c5.37.13 10.74-.05 16.09-.53l2.38-.39.17-.09 1.92-.63.46-.22h.16l.09.06v.1c.5-.2.95-.39 1.21-.52.12.08.25.16.38.22a1 1 0 0 0 .86.13v-.06l.09-.12.65-.34.09-.08.27-.44.38-.19.08-.08.18-.42.59-.51.21-.09h.35l.38.08.55.31.7.53v.15l-.06.08-.3.1-.38.28v.11l1.14.55h.14v-.08l-.05-.07-.25-.11-.06-.09v-.52l.09-.11.45-.34.14-.05h.48v-.44l.06-.07h.21l.6.34a2.8 2.8 0 0 1 1.93-.67c.1.07.07.29.05.48s-.05.46.18.28a.37.37 0 0 0 .21-.21c.45-.23.96-.28 1.45-.16.16.06.33.12.5.16l.41.11c.63.18.87.25.89-.37h-.09l-.22-.16h.5l.14.05c1.4.25 2.81.42 4.23.49-1.12.15-2.25.25-3.38.29-1.45.2-2.92.28-4.39.22 1.22.16 3.76.47 5.28.59-2.01.2-4.04.3-6.06.25 1.82.33 3.66.56 5.5.69-.16 0-1.47.11-3.05.16l.24.28c1.74.07 4.3.14 6.43 0a32 32 0 0 1 -6.13.46zm-8.95-1.82h-.12l-.48.14c.06.06.1.13.13.21.13.36.69.3 1.09.15zm7.52 1h-1.82c.37.08.74.12 1.11.14h.75v-.17zm-1.07.57.09-.06v-.06h.71c-.35.09-.8.18-1.28.27l.16-.06zm-4.84.42.11.06 1 .1c.43-.05 1.57-.2 2.68-.38l-.74-.22h-.47l-.33.1h-.18l-.16-.07-2.05.09v.16zm-2.73-.24-.28.08-.6.06-.49-.1zm.2 2.8v-.2l.24-.3v-.1l1.93.18c-.72.15-1.49.29-2.19.4z"></path><path d="m80.86 67.59v.11h.28l.53-.11h1l.27-.06.56-.24.09-.09v-.13l-.11-.07-.12-.07-.26-.05-1.43.12-.16.08-.59.43-.06.1m17.85-.78h.29l1.88-.3h.75l.19-.05.26-.24v-.14l-.1-.07-.66-.13-2.07.17-1 .28-.12.13.07.15.21.12.34.08m5.34-.63h.64l.57-.2.15-.1.08-.15v-.09l-.13-.08h-.8l-1.1.2-.15.12-.08.19v.11l.11.1h.29l.44-.11m-22.45.38h.62l.2-.1v-.17l-.26-.21-.63-.09h-.39v.13l.24.18.12.16.1.07m55.47 1.16.39-.08h.42l.76.13h.35v-.17h-.08l-1.23-.42-.4-.24h-.21l-.39.13-.26.18v.16l.15.13.19.09.3.19m7.74-7.6.81-.08.14-.11.07-.16v-.15l-.07-.09h-.84l-.14.07-.09.13v.22l.06.14h.09m-48.34 5.69-13.19 1c4.41.73 8.94.4 13.19-1zm-53.09-16.04 1.67-4.15.15-.47v-.28l-.13-.32-.2-.17-2.21-.63-.58-.06-.24.17-.15.19-2.37 4.6v.33l.14.12 2.61 1 .66.21h.19l.24-.17.22-.35m36.15-14.51-.37-.1-.24-.23v-2.74l.08-.22.12-.04h.58l1.61.24 1 .32.15.15.08.39-.07 2.27-.08.29-.2.14h-.27zm1.24-1.71v.05l-.09.31v.3l.19.09h.05l.09-.06v-.61l-.09-.08zm-8.85 1.02-.81.06-.39-.09-.05-.3v-1.71l.07-1 .12-.11.51-.12h2l.14.07.1.13v2.84l-.06.17-.18.13-.45-.09zm.71-2.89-.07.11v2.23l.08.11.45.06.16-.07v-2.36l-.08-.12h-.42zm-4.91 3.56-.2-.05-.11-.16v-.85l.05-2.33v-.67l.07-.17h.39l1.89.41.32.13.1.18-.06 1v2.3l-.12.19-.16.06zm.68-3h-.07l-.07 1.22.06.65-.06.47.09.07h.15l-.08-.2.07-.74v-1.46zm.9.63v-.63h.33v2.39l-.07.07h-.11l-.22-.06-.11-.13v-.88zm-16.62 15.49h-.12l-.13.14v.17l.22.23h.11l.13-.22v-.12l-.2-.19m19.59-10.11h.73l.45.15.29.24.15.24.2.64.25.22.13.27v.25l-.12.3-.25.21-.19.15-.57.16-.09.06-.11.66-.09.1-.14.02-.22.3h-.26l-.18-.15-.14-.15v-1.2l-.4-.21-.22-.18-.15-.25-.06-.31v-.2l.08-.38.1-.27.17-.23.25-.23.26-.16zm-.24.76-.11.16h-.11v-.15l.16-.17h.12zm1 1.14h.06l.35-.53v-.12l-.07-.09h-.11l-.11.4-.12.16h-.12l-.1-.1-.13-.41h-.07l-.1.23v.23l.18.23zm.81 0-.19.21-.06.15.08.08h.07l.3-.17v-.16l-.07-.11zm7.76-1.61.28-.11h.46l.78.29.14.13.26.37.07.27v.61l-.06.39-.33.29-.68.29-.16.1v.66l-.12.33-.27.2h-.14l-.27-.16-.19-.21-.05-.2-.09-.87-.11-.15-.21-.34-.08-.81v-.61l.08-.11zm.24.88v-.13l.08-.06.05.12zm1.07 0h.11l.06.09v.41l-.06.26-.07.09-.08-.11v-.56zm-7-4.5-1.08-.06-.18-.06-.08-.2.07-3 .12-.14.27-.08h.4l1.5.13.88.24.18.13.07.3-.07 2.64-.1.25-.16.11h-.39l-1-.18-.18-.09zm-.78-3-.07.08v.86l.08.07.21.07h.24l.07-.11.09-.5v-.28l-.13-.19zm-8.16 20.77h.1-.09m-1.89-25.77h-.14l-.09.11v.18l.15.13h.14l.16-.1.06-.12-.06-.18zm18.13 9.13-.24-.13-.13-.12-.07-.24v-2l.08-.83.07-.15.13-.09h.21l.71.08 1.19.25.24-.17-.16-.11v-.22l.11-.06h.32l.27.1.14.11v.21l-.14.11.19.26v2.21l-.06.72-.11.37-.26.16h-.2zm.42-2.93h-.14v.2l.06.1.2.14.62.2h.33l.08-.06v-.13l-.1-.13-.12-.07zm32.27 13.47c.32.23.58-.29.34-.43s-.36.23-.34.43zm-3.82-.26a.59.59 0 0 0 -.56.1c-.02.2.02.42.11.61.06.24 0 .47.14.55a.6.6 0 0 0 .6-.13c0-.1-.02-.2-.06-.29a3.76 3.76 0 0 0 -.23-.84z"></path><path d="m144.82 39.27h-2.14l-.72.07-4.59.77-1.58.35-5.74.91-13.52 2-1.35.24-3.05.4-.12.05-2.65.39-1 .2-.58.26-.18.14-.72 1.46-.56.79-.84 1-.75.75-1.1.92-.65.44-1.53.82-1.87.84-1.67.65-.76.22-3.51.76-.64.3-.36.19-.27.07-.12.07-.15.15-.4.11-.1-.06-.08-.25-.12-.13-.15-.06h-.54l-1 .24-1.72.2h-.54l-2.83.47-2 .09-3.1.32-5.85.27h-3.87l-1.59-.08h-1.86l-1.13-.09h-2.5l-3.14-.16h-.48l-1.55-.21-2.19-.23-2.54-.24-.82-.15-2-.37-2.84-.68-.95-.3-5-1.74-4.34-2-.87-.43v-.17l1.61-2.74 1.83-3.09.31-.4h.25l2.79.75 1.59.33 2.54.4h1.82l1.26-.08h.21l.07.08v.32l-.07.17-.14.08-3.78.61-.15.07-.15.18-1.28 3-1.21 3v.16l.11.1 1 .35 2 .62 2.61.68 3.33.68 1.18.18 1.89.1 1.8.14.76.11 3.45.26 5.81.16 3 .19 6.24-.14 1.32-.1h.37l3.33-.25 1.94-.22 2.8-.21 2.29-.38h.79l3.22-.61.91-.29 1-.1 1.27-.29 2.54-.8 3.16-1.39.53-.29.74-.47 1.2-.9 1.41-1.33.79-1.13.28-.51.59-1.45.17-.08 9.51-1.44 1.55-.27 3.41-.48 7.04-1.11 8.32-1.19 6.23-.95.36.13h.12l.34-.22h.35l.18.19.14.23zm-17.49 5.73c-.34 0-.71-.66-.45-1a.56.56 0 0 1 .63 0c.14.29-.3.2-.35.38s.22.27.46.27c.06.21-.15.34-.29.35zm-1.11-.86c.37-.14.37.47.39.81-.4.23-.36-.48-.39-.81zm-.34.5c-.06.23 0 .53-.26.52s-.26-.28-.37-.47-.26-.35 0-.48.22.18.37.24c.13-.1.22-.45.45-.17 0 .13-.09.21-.14.36zm-1.53.72c-.13-.09-.13-.36-.16-.56a1.4 1.4 0 0 1 0-.33c.07-.2.55-.28.66 0-.09.17 0 .25.09.36s0 .25.07.37c-.14.18-.45.32-.62.19zm-1.28-.65c.07-.28.8-.4.73 0 0 .13-.29 0-.34.14-.13.32.26.3.46.35-.14.66-1 .15-.85-.51zm-5.31 2.58c-.44.29-.46-.56-.55-.93 0-.16-.08-.28-.12-.47s-.23-.61.11-.58.21.25.26.47a5 5 0 0 1 .3 1.51zm-.76-.29c0 .14 0 .33-.1.41-.3 0-.25-.24-.4-.34-.37-.14-1.09.26-1.11-.23 0-.13.13-.3.2-.41l.45-.75c.09-.17.18-.35.36-.34s.23.29.29.53c0 .08.07.16.1.26s0 .22 0 .31.23.19.24.34 0 .13-.07.22zm-2.6.7c-.13 0-.27.1-.41.06s-.32-.37-.28-.74 1-.34.9-.82c0-.19-.29-.28-.57-.19s-.16.31-.38.3-.2-.5 0-.63c.24-.08.49-.12.74-.11.31 0 .38.16.49.4a.7.7 0 0 1 .07.67c-.08.14-.25.18-.42.26s-.39.17-.36.32.6 0 .88 0c.07 0 .2.12.19.22 0 .28-.5.19-.87.24zm-1.23 0a.2.2 0 0 1 .03-.11.18.18 0 0 1 .1-.07c.13 0 .3.06.29.19s-.41.25-.42 0zm-.31.16c-.12.25-.5.2-.82.25l-.29.06c-.39-.08-.38-.8-.48-1.22 0-.18-.23-.63-.1-.81s.23-.08.41-.11.43-.16.75-.1.32.68.42 1.12c.06.21.25.49.11.81zm-2.77-.76c.19.07.78-.28.82.06s-.63.12-.77.39.29.46.05.75c-.19.11-.37-.08-.42-.24s-.1-.75-.18-1.1c0-.18-.21-.36-.1-.62.31-.14.66-.2 1-.18.08 0 .36 0 .39.12.1.38-.89.18-1 .45a.41.41 0 0 0 .14.37zm-67.72-8.75h.13v.54l.08.18.29.13h.19l.4-.12.65-.31h.19l.42.5.22.35.06.38.13.14 1.78.4h.09l.11-.06v-.1l-.11-.18-.62-.12-.7-.26-.22-.12v-.06l.54-.34.16-.06h.2l.14.11.42.47.15.12h.15l.85-.5.27-.1h.18l.51.62.15.14h.16l1-.68h.15l.2.11.49.48.11.07h.19l1.8-1.24.18-.05h.15l.07.1-.17.74-.24.46-.18.21-.49.21-1.6.43-.4.09-1 .12-1.54.1-1.3-.18-1.76-.37-1.47-.4-.53-.25-.17-.16-.17-.29-.24-.69-.08-.49zm2.12-2 .46-.14.6-.11 2-.18h.57l.72.13 1.72.49 3.84 1.51.08.08-.7.11-2.27.07-.73-.07-4.78-.63-2-.47-.5-.14-.42-.08-.17-.09v-.06zm1.14-1.7 1.27-1.12 2.75-2.34.66-.48h.19l.12.08.56 1.63 1 3.33v.48l-.18.09-1.68-.64-1.54-.47-.76-.14-1 .09h-1.84l-.06-.08zm13.15 6-.86-.11-.19-.08-.12-.27v-.3l.06-.22.07-.09.26-.08h.4l.43.11.12.13v.8zm-1.66 2.47.05-.07h.36l.55.1-.35.16-.49.07-.12-.07zm-1.88-2.77.32-.5.13-.31.11-.17h.73l.15.07.07.08v.29l-.2.44-.07.06-.57.12h-.56zm-.91 0 .07-.16.21-.22.45-.3v.14l-.11.25-.34.23zm1.14.69h.56l.3.15.23.14v.51l-.08.38-.1.08h-3.54l-.1-.08-.15-.77.1-.14.15-.06.85-.17zm-6.77 7.96-.17-.11-.09-.16.05-1.51.09-.35.18-.28.15-.24v1l.24.75.15.22.52.39v.29l-.09.08-.62.06zm.3 3.11v.1h-.06l-.36-.06-.11-.07v-.19h.35l.18.11zm-.11-.68-.37-.06-.12-.09v-.06l.06-.09h.33l.21.06.06.08v.11zm1.93-.19v1.07l-.14.08-.52-.09-.16-.07-.08-.8v-1.1l.13-.48h.31l.3.06.09.08v.12zm-.22-3.07-.45-.07-.32-.2-.13-.12-.17-.29-.06-.34v-.28l.15.53.26.49.16.11.42.11h.16l.38-.11.2-.15.21-.24.12-.21.12-.4v.39l-.09.26-.17.2-.2.17-.27.12zm4 1.81-2.59-.39-.94-.24-.07-.08v-.27l.09-.12.45-.2.3-.22.23-.27.21-.37.09-.23.11-.75v-.19l-.16-.34-.41-.57v-.27l.27-.59.07-.1h.22l.58.43.6.55.39.49.46.8.3 1 .19 1.05v.72l-.11.16zm-.28.48-2-.24-.23-.08h.42l2.14.33zm-.55 1.09-.35-.11.64.06.42.1v.08zm-1-.75 1.63.23h-.09zm1.46 2.53v.09l-.23-.05v-.09h.19zm-1.38-1.33-.18-.07 1.17.12.54.1zm4.77-7h-.62l-.91-.06-.36.08-.1.12v.21l.11.14.22.06h1.1l.12.08v.92l-.18 2.63v.39l-.12.35h-.07l-.23-.92-.23-1-.35-1.16-.6-1.37-.58-.8-.08-.07v-.09l-1-.8-.55-.34-.17-.14-.1-.17v-.06l.08-.07h.24l2.35.09.82.09.07.06v.22l-.09.08h-.28l-.22.11-.13.13-.07.13v.44l.08.17.22.12h.81l1.42.09.14.07v.09zm.25 8.62h.33l-.23.05-.41-.06h-.35zm-.44-1.36h.23l.17.05-.08.06-.3-.05zm.34.63.19.08v.03h-.6l-.08-.09zm.8-7.17-.06.08h-.08v-.1h.15zm-.08-3.06-1-.18-.22-.09v-.1l.08-.84.09-.23h.09l.7.07.21.06h.43l.07.09v.56l-.06.49-.13.12zm-6.85-11.44.52.2 2.36 1.27.56.26 4.29 2.33.47.39-.07.14-.38.1-.18.1-.15.16-.33.59-.11.33v.48l.27.69v.6l-.24.07-.93-.15-.34-.14h-.16l-.5.1-.72-.06-.12-.07.12-.35v-.15l-.22-.22-1-.54-1.37-.65-.21-.13-.33-.94-1.22-4-.07-.39zm4.45 1.64 3.35 1.49.54.26.14.14v.15l-.12.1h-.12l-.84-.42-3-1.72zm4.21 3 .29-.35-.05-.3.07-.18.1-.12h.61l.06.14v1.23l-.1.19h-1.14v-.12zm4.31 11.29h.64v.07l-.63-.06zm-1.18 1.17h1.77v.18l-1.78-.16zm-.54 1.24h2.29v.22c-.77-.05-1.53-.11-2.29-.18zm-.45 1.24c.79 0 1.72 0 2.72-.06v.26h-.06c-.9-.05-1.79-.12-2.66-.2zm-1.55-5.7v-.1l.07-.17.13-.05h1.56l.17.08-1 .45h-.27l-.45-.09h-.1zm4.1 7a74.7 74.7 0 0 1 -4.13-.31c1 0 2.3 0 3.58-.11h.64v.46zm-5.16-7.34h.1v.22l-.08-.16zm.5-5.12-.13.77-.13.07v-.88h.18zm0-.79h-.11l-.1-.12-.12-.36-.16-.43v-.14l.11-.13.11-.06.24.21.12.24v.51l-.05.25zm-.63 5.49v-.1h.09zm5.3 9.74-.08.08h-1.68.87l.89-.05zm-.1-.68a82.75 82.75 0 0 1 -5.2-.36c1.23 0 2.89 0 4.57-.13h.77v.54zm.66-7.89-.3.07h-.26l-.17-.08v-.12l.21-.27.27-.16.25-.05h.78l.44.06-.2.13zm.38 1.79v-.14h.27v.18h-.27zm0 1.26v-.25h.28v.28h-.28zm0 1.25v-.28h.29v.31h-.29zm0 1.26v-.32h.27v.34zm0 1.14v-.54h.25l-.06.57zm.06 1.79-.07.15h-.07v-.14zm0-.58h-.18v-.62h.18v.64zm2.65-4.72-1.65-.07v-.36l1-.05c1.68-.09 3.39-.24 4.7-.39h.21v.94h-4.26zm-.06-3.29.2-.32.17-.19h.69l1.3.09.05.01-.84.44-1 .28h-.32l-.23-.1-.07-.11zm3.85 1.3h.43v.78c-1.44 0-2.83 0-4.18-.07l-1.69-.03v-.27h1.16a74.5 74.5 0 0 0 4.25-.35zm-3.89 3.21c-.52 0-1 0-1.54-.06v-.39h.84c1.79-.1 3.61-.25 5-.42v.92h-4.32zm4.25 2.69v1.73l-.13.14h-3.87l-1.5-.15-.3-.08-.06-.12v-.2a73.86 73.86 0 0 0 4.88-.59c-1.69.09-3.3.12-4.85.1v-.72c.74-.06 1.42-.14 2-.2 1.31-.15 2.2-.3 2.28-.33-1.49.07-2.92.08-4.31.05v-.66c.64 0 1.23-.11 1.75-.17a26.8 26.8 0 0 0 2-.29h-3.74v-.42h.71c1.8-.09 3.64-.25 5.16-.42l-.09 2.38zm.08-6.93-.48.07-.25-.07v-.08l.11-.23.22-.28.11-.07h.69l1 .12.23.07h-.45zm.72 3h-.14l-.11-.15v-1.75l.1-.11h.28l.07.11v1.48l-.07.26zm-.28 2.15v-.18l.06.16-.05.37zm.11 1 .25-.1.06.05v2.38l-.07.14h-.2l-.17-.11v-2.19zm5.91 0 .1-.23.09-.1h.11l.16.3v.2l-.06.3-.1.15h-.09l-.14-.15-.07-.16zm-1 0v.32l-.11.09h-.51l-.17-.09-.14-.29v-.54l.06-.1h.12l.27.37.12.09.41.12zm-3.2 2.51h.69l.47-.08h1.2l.34.09-.12.05h-1.61l-.82.07h-.26zm-.39-.94v-.19l.12-.1h.89l.28.06v.44l-.07.09-.2.06-.76.08-.23-.07v-.08zm0-1.91.1.11.49.07-.62.14v-.61l.15-.06h.42-.27l-.16.07-.1.12zm1.8-4.14h.29zm-1.5-.27.09.07 1.3.16h-.77l-.32.05-.21.1-.08.09v.17l.07.09.17.06h.35l-.45.16v.21l.11.1 1 .05.55.11-.85.18h-.34l-.32.07-.11.07v.15l.12.15.64.05.25.1.47.06-.22.23-.22.07h-1.09l-.26.07-.09.1v.12l.07.08.54.19-.35.06-.15.12-.07.24h-.1v-3.82h.3l-.08.11zm3.87 6h-.2zm-.36-2.31h-.11l-.12-.1-.25-.41-.15-.26-.21-.11h-.28l-.2.06-.18.1-.1.13-.14.31-.07 1.22.18.65.26.25.23.13.4.11-.07.07-.42-.09-.23-.11-.26-.17-.12-.13-.24-.77-.06-.44v-.83l.18-.38.27-.27.48-.2h.23l.36.17.17.14.35.49.34.11h.72l.15.11v.11l-.17.06zm2 2v.55l-.27.68-.2.19h-.18l-.08-.09v-.1l.44-.62.26-.58zm-18.36-13.38h-.63l.12-.17 1.87-.17c1.78-.11 3.54-.32 5.3-.61 1.44-.09-2.11-.3-4.62-.26h-1.51l.2-.16.19-.18.36-.14.07-.08v-.08c1.34.02 2.68-.08 4-.31 1.36-.09-1.47-.45-4.18-.37l-.06-.08v-.17l1.21-.14c.75-.08 1.51-.14 2.27-.2l2.2-.15c1.35-.09-.89-.26-.89-.26-1.07 0-2.09-.14-3.08-.15-.54 0-1.08 0-1.63.07v-.06l.11-.12v-.31l.77-.08c1.62-.17 3.36-.29 4.75-.38 1.18-.07-1.18-.24-3.23-.28l.16-.25.23-.14.76-.12.13-.11v-.14l-.1-.1s-.41 0-.43-.14l-.45-.17v-.2l-.09-.18-.13-.15-.25-.22-.1-.11 3.47-.25c1.33-.08-1.57-.27-4-.26l.01-.01.1-.08v-.18l-.1-.1h-.2l-1.19.31.29-.15 1.07-.5c1.49-.13 2.88-.22 4-.29s-.31-.18-2.08-.23v-.17l-.07-.12-.21-.07.21-.11 1.8-.39 2.22-.3.16-.12.14-.18.2-.74.06-1 .56-.2.4-.06h1.11l.37.12.13.08v.11l.2 1.37-.07.11h-.54l-.13-.15-.05-.7-.11-.26-.27-.11h-.43l-.39.12-.1.09-.07.15v1.27l.08.1.37.06h1.54l5.19.44h.48l2.51.5 2.94.75 1.88.63 2 .75 1 .47.37.23.12.12v1.88h-.26v-.82l-.28-.27-.25-.07-.37.05-.1.18-1.59-.76-.66-.25h-.28l-.15.11-.09.26-.07 1.52v1.45l.2.14 1.8.44h.39l.2-.09.11-.15.15.06h.2l.37-.16.19-.09.42.08v.87l-2.83-.23s-2.24-.05-.91.17c.67.11 1.42.23 2.17.37l1.53.29v.74c-2-.15-3.75-.13-2.67 0l2.64.4v.42c-2.32-.2-4.84-.22-3.6 0 1 .17 2.25.38 3.56.62v.7c-2.1-.17-4.29-.23-3.13 0l3.15.55v.81l-.41-.05c-1.36-.13-2.73-.2-4.1-.18v.16c1.33.22 2.94.5 4.47.82l-.1.47-.14.06-2-.17s-2.25-.05-.91.17l2.06.36-.72.3h-.16l-1.44-.22-.61-.11h-.31l-.66-.15-1-.06-1.43-.19-1.46-.24-2.06-.11-1.28-.12h-.25l-.72-.08h-.89l-2.57-.14h-2l-1.64-.05h-1l-.63.08h-1l-1.3.06h-1.23l-3.28.11h-1.28.19l-.16-.18 1.88-.27c.71-.1 1.45 0 2.19-.08s1.51-.23 2.27-.29 1.52-.2 2.2-.24c1.35-.09-.89-.26-.89-.26-.96-.19-1.96-.19-2.96-.19s-2 0-3 .06l-1.57.08.16-.29c1.09-.19 2.36-.42 3.63-.55 1.62-.17 3.36-.19 4.74-.28s-2-.49-4.18-.48c-1.25 0-2.52.11-3.82.24l.16-.37v-.23h.45c1.78-.19 3.61-.22 5-.31s-.33-.61-4.41-.46zm1.2-5 .08-.1h.06l.11.18-.21.07v-.06zm2.27-6.39-.35-.22-.4-.31-.41-.43.4-.07.09-.12v-.17l-.09-.09h-.23l-.16.08-.08.12v.07l-.09-.19v-.28l.08-.13h.98l.13.05.38.32h.22l.3-.12.17-.16.09-.35v-.09l.06-.11-.17.74v.19l.21.24.13.42.12.14.19.08-.54.27-.1.1v.16l.12.1h.18l.45-.1v.2l.1.18-.28.22v.17l.09.14-.07.16v.1l.09.08h.36l-.15.12-.18.24-.18.1-.49.09-.19-.13-.16-.84-.07-.33.05-.39-.06-.12-.08-.05h-.23zm12.23 1.3-.12.08h-.58l-.11-.15v-.21l.07-.8.13-.09.38.08.13.07.1.18zm-8.73-2.59.31-.17 2.24-.62 1.41-.26 2-.08 1.84.08 1.58.28.78.32.32.18.18.16v.91l-.09.49-.14.06-1.73-.38-1.7-.22-1.14-.06-.17-.4-.1-.12-.14-.08-1.38-.19h-.9l-.6.07-.42.1-.41.19-.15.22v.68l-.16.13-.48.06-.42.12h-.26l-.19-.21-.14-.46v-.63zm9.14-4.21.84-.4 17.67-7.8.26-.05.5-.28 1-.37h.08l-.62.85-1.91 2.43-4.13 4.95-.27.28-.14.09-7.49.8-4.2.42-.29-.11-.88-.51-.44-.23zm24.35-5.65-.11-.11v-.11h.15l.08.09v.1zm.06 4.08-.16.06-.82.09-.13-.08v-.37l.49.06.52-.31.1.05zm-.12 6.23-.31.36h-.1v.11l-.29.29-.13.05-.15-4.53v-1.29l.06-.16h.11l.46-.05.07.09h.07l.1-.1h.15l.12.05v5.1zm-.25 16.35-.09.58-.07-.23-.12-2.86-.25-11.65.08-.19.56-.68.1-.08h.08v5.27zm-.79 2.64-.23-.45.58 1 .27.86.24 1.37v.19l-.14.12h-.09v-1.01l-.16-.79zm-4.46 2.35.17-.11.48-.09h.18l.35.17.3.08h.26l.44-.08.31-.16.34-.25.3-.35.38-.53.3-.13h.15l.12.07.14.18.24.72v.51l-.07.1-.35.15-.91.24-1.13.17-1.24.11-.25-.1-.52-.45-.1-.14zm.15-2.5.22-.73.13-.27.1-.14h.1l.09.11v.3l-.07.19-.38.52-.2.52v.44l-.14.17h-.1v-.3zm-.69.59-.15.63-.19.46h-.09v-.29l.45-1.6.38-1 .15-.22.22-.46.13-.15h.06l-.66 1.62zm-.45 2.09.3.23.39.39v.1h-.07l-.08-.06-.58-.47-.06-.12zm2.15-5.25-.05-.06.12-.07.48.06.44.19.29.18v.06l-.4-.17zm.56.73h.28l.35.17.43.39.55.85.09.21-.52-.34-.27-.17-.31-.15-.42-.12-.08-.1-.08-.3v-.38zm-8.39-8.35v.78h-.29v-.83h.27zm1.42 4.53-.09 1.28-.06.19-.15.14h-.08l-.09-.14v-.31l-.1-.24-.21-.1v-.75l.09-.31.23-.08h.28l.14.1zm-5-10.82.07-.25 1.22-1.58 2.51-3.14.92-1.05.15-.09h.22l.09.07.14.44v.89l.09.13.24.08h.13l.23-.07.12-.15.06-.11v-.34l-.04-.14-.3-.24-.08-.19v-.26l.16-.2.34-.09.75-.11.12-.05.17-.28.13-.06.84-.14 5.24-.59h.55l.06.42.15 6.35-.1.23-2.76 3.37-2.6 3.28-.22.29-1.45 1.79-1.3 1.53-.18.08-.17-.15-.15-.07h-1.08v-1.47l.13-3.77-.06-.28-.19-.31-.21-.29-.72-.45-.93-.44-.45-.24-1-.44-.53-.16-.09-.07-.14-.2-.07-.22zm-4.69.22h.54l.07.09v.22h-.11l-.49-.05-.6-.1zm-1.76-1.84.1-.09 1.91-.3h.22l.08.1-.12.09-1.72.3h-.41zm.13.82 1.88-.29h.32v.22l-.08.17-.47.06-.23.12-1.62.21-.06-.06v-.38zm4.64 0-.12-.11.31.15v.06zm-.43.54-.22-.15.69.36.07.08zm-.74-1.09.57.26.26.17-.55-.22-.29-.18zm0 1.61-.14-.12v-.07h.22l.9.45.17.15zm2.46-1.21-.27-.09-2.29-1.22-.19-.14-.35-.36-.25-.07-2.58.41-.1-.05-.05-.11v-2.29l.07-.27.11-.12.48-.14 8.82-1h.63l.11.07v.26l-.11.25-3.49 4.3-.46.52zm-.33.74h.27v.08h-.13zm0 .64h.33l.09.08v.2h-.32l-.11-.1zm2.16 16.35v-.12h.22l.82.07-.07.06-.52.12h-.42zm1.24 2.44-1.76 1.1h-.22l-.21-.13-.08-.3-.08-.69-.13-.18-.48-.12-.15-.08.07-.26.11-.18.25-.11.74-.11.81-.19.73-.26.77-.39.47-.33.33-.37.13-.29.17-2.52.11-.09.41-.14.86-.43.14-.17.07-.2.07-1-.05-.61.05-.23.55-.73 6.23-7.64 1.15-1.39.52-.55h.08l.06.42.1 2.57.18 10.08v.14h-.1l-.49-.36-.57-.41-.68-.4-.48-.19-.81-.15-.21-.09-.24-.3h-.09l-.09.06-.18.57-.55.37-.53.55-.58.81-.66 1.18-.11.12zm3-.25-.57.08-.11.08v.1l.17.39v.11l-.42.44-.43.21-.3.25-.14.17-.07.17v.24l.11.24-.05.06h-2.51l-.21-.25v-.19l.15-.16 6.06-3.91.46-.21h.06l-.32 1.3-.16.25zm-1.4 1.89.11-.09h.16l.08.08v.11l-.07.09h-.12l-.11-.06-.08-.07zm.36 1.34.14.14v.14l-.19.09-3 .42-.23-.16-.21-.17v-.42l.1-.09h2.43zm-6-5.68.13-.13h.82v.09l-.22.17-.4.08-.32-.11zm.17 3.73.19-.39h.09l.13.14h.1l.17-.14.15-.36.12-.11h.18l.09.05v.76l-.12.17-.2.15-.13.22-.18 1-.06.09-.55.09h-.24l-.13-.06v-.24zm-1.06.06h.33l.07.08-.06.22h-.07zm.13 1-.13.69-.11.08v-.39l-.06-.66.11.07zm-1.38-4.93v-.09l.12-.08h.57l-.1.09-.16.08zm-.53 4.52.18.58.18.79.11.19.11.07h.17l.13-.19v-.65l.15.29.17.21.06.23.08.08.16.06 1.14-.08-.62.17h-.26l-.41.18-.09.14v.15l.17.09h.32l1.13-.13h.3l-.1.06-1.1.17-.47.2v.17l.07.11.18.06 1.26-.22h.73l.27-.26.08-.31v-.54l.09-.64h.06v1.08l.06.48.19.24h.12l.14-.22v-1.98l.07.16.11 1.09v.65l.08.18.08.07h.08l.61-.15 1.39-.18 1.92-.34.15-.06.12-.14v-.42l.15.1.14.18.06.22v.11l-.12.1-1.25.36-.67.07-4.3.59-2.83.28-1.81.1h-.67v-.06h.24l.24-.07.11-.15v-.27l.13-.32v-.58l.39-1.52v-.34l.19.42.11.46.06.1h.11l.2-.12.1-.27zm16.34-36.3.84-1.07.27-.24 3.7-1.64.88-.33h.17l.1.05v2.68l-.05.27-.4.2-.8.33-1.15.33-.13.11v.35l.1.23.08.11.08.17-.07.14-.23.22-.26.16-.14.13-.1.17-.06.19v.26l.07.27v.15l-.65.6-.21.25-.14.24-.14.47.07 2.19-.09.12h-.17l-5.58.59-2.15.18h-.09l.11-.25 2.32-2.89zm3.25-4 .3-.3.6-.83 1.43-1.73.47-.47h.09v2.73l-.12.12-1 .44h-.17l-.55-.4h-.46l-.17.13-.34.92-.23.19-.63.24zm2.46 10-.07.15-.17.17-.59.36-.47.06-.12-.1v-.16l.09-.13-.09-.2v-1.1l.1-.65-.08-.33-.45-.71v-.14l.29-.39.19-.5.19.18.35.48.28.57.22.14.39.06.07.12v1.72zm-.12 6.88-.55 18.65-.08 2v.21l-.16.09-.37-1.33-.13-.24-.1-.34-.3-.61-.07-.32.01-6.61.23-10.95.19-.32 1.14-1.36h.13zm-.14-3.23-.27.43-.18.38-.07.26v.44l-.08.19-.59.66-.07-.12.09-4 .07-.21.12-.1.57-.05.29.2h.38v1.07zm.8.59.13-1 .07.12v.15l-.09 2.28v1.89l-.1 1.31-.09.52v2.74l-.09.45v.18l.19.46v.76l.2.25v.75l-.1.3-.09.8-.06 1.78v1l-.09 1.12v2.2l.06 1-.12 2.48.15.44v.15l-.13.21-.37.4h-.11v-3.8l.22-9.89.1-3.4v-2.01zm.29-6.56h.08v2.21l-.18.28v-1.08zm0-1.39v-1.07l.11-.18.17-.06h.09l-.23.37.06.59-.15.57h-.08zm0-4.67.06-.48.24.74-.17 1-.06-.3zm.16-3.39v.65l.06.38v.18h-.08v-1.03zm0-2 .06-.34.08-.17.07.16v.33l-.15.51v.38h-.07v-.38zm1 35.63.06-.07h.65l.93.06.09.11.08.55v.7l-.12.06-.38.1-.93.08-.28-.1-.11-.12v-.91zm1.6-.86v.1h-1.16l-.36-.08v-.14l.07-.08h1.26l.17.07zm-1.61-4.12v-.75l.13-.13h.95l.07.21.37 3.67-.08.11-.31.06-1-.06-.13-.06zm1-1.67-.23.08h-.63v-.06h.72zm-.91-5.33.1-.06h.32l.11.1.43 4.44-.08.11-.09.05h-.76l-.08-.11zm0-1.21.08-.07h.14l.12.07v.24l-.08.1h-.11l-.09-.13-.05-.11zm0-3.12.23 2.05-.08.09h-.09l-.13-.11zm.06-14.51v-3.99l.07-.06h.14l.19.2.22.06h.58l.15.06-.62.14-.24.1-.16.14-.08.14v.47l.14.22.28.15h.2l.44-.11.18-.13.15-.46.23-.15.21.05 4.37 4 .2.24.1.92v.76l.1.63v.46l.34 5.19.11 1.87v.26h-.07l-.17-.1-1.65-1.59-2.39-2.2-1.56-1.5v-.14l.52-.41.13-.16.09-.2v-.32l-.24-.42-.91-1.11v-.12l.14-.17.48-.22.13-.12.08-.14v-.3l-.36-.4.17-.19v-.13l-.07-.33-.12-.17-.1-.06.14-.15.07-.16v-.21l-.07-.32-.22-.16h-.29l-.6.15-.24.21v.56l.09.08.31.12-.31.17-.09.11v.51l.17.18-.3.16h-.12v-.58zm.17-4.79h.09l.2.1h-.34zm7.35 6.63.1-.05 1.11 1 5.49 4.93.61.59.07.11-1 3.63-1.05 3.79-.08.14h-.11l-4.3-3.94-.1-.15-.08-.89-.38-5.38-.27-3.35zm16 25.2v.11l-.16.06h-.15l-.54-.45-.19-.2v-.08h.37l.5.41zm-.16-1.52-.17.09h-.19l-.49-.39-.19-.21v-.09l.44-.1h.49l.09.49zm-6.18 3.26.28-.08 5.2-.7h.33l.18.08.4.37.22.3v.13l-.2.1-4.87.76-1.12.15h-.25l-.14-.18-.09-.39v-.48zm3.82-3.63.09-.07h.25l.13.07.36.31.17.21v.07h-.33l-.42-.37zm-4.08 2.06.22-.07 3.93-.56h.47l.55.48.23.24-.11.09-.92.16-4.12.56-.17-.07-.07-.12-.06-.61zm-.22-1.52.17-.07 2.85-.38h.28l.2.08.55.55-.07.06-.55.14-3.2.41-.17-.06-.11-.6zm-3.45-8v-.07h.16l.69.61 1.71 1.61.49.42 4.08 3.82.11.2-.29.08-.27-.15-3.21-3-3.52-3.34zm3.08 7.1h-.2l-.28.22-1.48.24-3.25.44-.09-.1 1.79-6.46.17-.39h.12l.24.17 1.14 1.05 4.51 4.18.23.26v.11l-.09.06-.28.07-2.29.31zm-.59 4.94.34-.2.07-.09v-.13l-.06-.33h.2l.07.11.1.79-.07.1-.53.09-.17-.07v-.16zm-.08-1.64.12-.22v-.52h.31l.1.08.07.42v.28l-.13.07-.36.06h-.11zm-4.13-.88-.83.08-.09-.06v-.16l.14-.49.11-.11.19-.07 4.5-.63h.37l.06.11.06.49-.06.13-1 .18zm1.89 1.39-2.3.32-.87.08h-.12l.19-.77.12-.13.53-.11 2.36-.33h.26v.62l.1.09.3.06zm-3.61 1.44.1-.22.34-.11 2-.3 1.14-.09.12.11-.1.31v.2l.15.21.31.14-.39.13-3.27.48h-.38l-.11-.12v-.5zm-.31-3.38h.39v.09l-.17.59-.11.11-.09-.12v-.51zm-.7 1.76v.55l-.06-.46zm-.06-1h-.06v-.44zm-.29-14.22h.1l.28.21 3 2.75.64.62.08.12v.22l-.07.08h-.1l-3.25-3-.6-.59-.07-.13zm-3.15-3.13 2.24 2.15.09.12v.33h-.1l-5.92-5.59-1-1-.1-.18v-.16h.09l.59.5 1.11 1zm-3.21 19.37.23.64-.06 1.13v.26l.11.12.28.07.09.1v.15l-.09.09-.27.07-.16-.11-.08-.22-.13-1.65v-.65zm0-.37v.22l-.11-.3v-.61l-.06-.92v-.29h.07l.08.11.06.42v.54zm5.71-3-.15.17-.49.11-3.66.49h-.42l-.16-.06-.1-.51-1-8.86-.45-3.48-.51-4.72-.06-1.2.06-.4.08-.05.31.23 4.89 4.52 1.13 1.08.41.41.22 2.07.36 4.89.06.49.2 3.16.1 1v.5l-.1.15-.41-.09zm-4.36 4.68 4-.6h.53l.1.52v.49l-.07.07-1.64.31-2.76.39-.13-.11-.12-1zm-.34-2.45-.07-.26v-.32l.07-.09h.14l4.09-.6h.28l.12.05.09.61v.1l-.16.07-4.05.58h-.36zm.15.83.14-.06 1.42-.24 2.58-.27.2-.07h.22l.09.06.06.41v.29l-.07.11-.66.14-3 .43-.68.06h-.26v-.13l-.07-.55zm5.75 1.65v.11h-.06v-.81l.07.19zm-.49-15.61v-.54h.15l3.12 2.85.41.4.08.16-2 7.25-.14.41-.08.09-.14.07-.54.05-.1-.15zm7.11-6.11h.12l3.1 2.8 1.53 1.41 6.34 5.75 2.93 2.65.84.81v.1l-.18.32-.09.1-.22.08-5.6.79h-.43l-.34-.15h-.13l-.26.21-.15.07-1.51.21-.22-.12-3.07-2.89-1.62-1.47-2.79-2.6-.35-.35v-.16l.44-1.6.27-.87v-.11l1.21-4.39zm8.38 16.32-.09-.48v-.16l.08-.08.18-.06 5.83-.76h.23l.09.08.08.38v.27l-.11.08-.21.06-6 .76zm1.14 3.19v.12h-.3l-.2-.18-.15-.18-.05-.27v-.1h.12zm1.85-1-.06.21-.08.07h-.07l-.08-.08v-.19l.06-.07h.21zm2.51.28v.18l-.33.09-.39-.08-.09-.06v-.11l.08-.62.48-.07.06.07.1.4zm1.09-2.11v.5l-.25.08-3.75.49-.08-.08v-.22l-.1-.13-.14-.12h-.41l-1.09.32-.29.25h-.14l-.12-.3v-.28l.1-.08.25-.07 5.4-.73h.5l.14.06zm.07 1.57h.09v.4l-.05-.09zm.34-3.57.17-.07h.52l.51.41.15.19v.07l-.91.19h-.31l-.1-.11-.03-.58zm1.91 2.91v.13l-.72.85-.41.08h-.15l-.14-.09-.08-.6v-.14l.1-.07 1.27-.17zm.25-1.67h.1l.45.4.1.2-.15.17-2.2.34-.18-.06-.08-.16-.06-.6.11-.1 1.26-.2zm1.09 1.54-.4.54-.3.31-.13.07h-.13l.64-.82.16-.09zm1.2.52v.07l-.44.13h-.29l-.07-.08.35-.43h.12l.17.11zm-.2-1.78-.13.11h-.08v-.16l.37-.47h.2zm-2.25-1.8.36-.09 2.11-.31h.48l-.58.73-.1.09-1.42.22h-.19l-.47-.38-.21-.22zm3.42 2.7h.3l.09.08.05.13v.42l-.13.06-.35-.3-.24-.21v-.07zm-.11-1.08.43-.52h.17l.23.37v.25l-.06.12-.29.09-.63.08zm.51-2 .1-.09h.08l-.5.64h-.1zm2.43 4.86-.51-.7-.24-.2-.63-.21-.12-.09v-.23l.07-1.48.17-.71.3-.33.07-.15v-.19l-.34-.47v-.34l.1-.35v-.24l-.13-.21-.09-.08-.15-.05-.44.06-.54.18-2.8.37h-.36l-.69.22h-.66l-.25-.16-3.61-3.22-4.36-4-1.47-1.29-3.91-3.6-9.91-8.95-6.75-6.08-.16-.21v-.2l.08-.34-.06-.19-.16-.18-.56-.14h-.25l-.29.1-.31.19-.12-.06v-.36l.1-.16.61-.21.3-.23.18-.23.08-.22v-.35l-.16-.4-.13-.13-.18-.12-.23-.06h-.86l-.89.12h-.62l-.39.12-.13.12-.11.21-.09.43v.25l.09.29.31.31.36.22v.18l-1.44 1.9-3.82 4.66-.2.13-.36.12-.35-.1-.25.07-.23.26-.12.08-.41-.21-.25.07-.33.35-.44.05-.17.07-.21.2-.28.48-.18.15-4.56 2-11.35 5-3.87 1.65-.27.06h-1.37l-1.58.11-1.19.25-1 .29-1.76.69-1.43.68h-.1l-1.22-.62-.55-.21-.54-.15-.35-.3-.23-.17h-.27l-.76.87-.23.43-.07.4v.51l-.07 1v.73l.13.63.24.43.24.23 1.07.78.22.22.16.22.1.56v.15l-.06.1-.44.2-.9.34h-.5l-.67.22v.22l-.09.05-.12.12-.06.29-.09 3.61-.16 2.31-.06.21-.16.13-.3.08-.05-.1.17-.86v-.34l-.2-.5-.23-1.85-.11-.43-.18-.17-.15-.08-.32-.27-9.17-4.07-.43-.09v-.06l.79-.27.42-.21.09-.14v-.18l-.09-.16-.53-.45-.16-.18v-.54l-.07-.23-.22-.19h-.38l-.17.08-.41.28-.41.43-.23.33-.11.2-.1.41v.45l.07.34.21.38v.16l-.26.28-6 5.27-.16.09-2.64.6-.23.08v.9l-.23.61-.06.19v.16l.11.2.19.2.6.17.12.25.32 1.36v.14l-.16.16-2 .48-.5.17-.17.13-.14.25.16.72-.1.23-2.81 4.72-1.83 3v.32l.36 1.19.8 2.65.12.2.13.07h.18l.4-.11h.21l-.25.05-.09.1v.16l.13.15.24.15.93.47 2.9.78 2 .43 2.49.44 4.93.67 1.78.2h.21a224.8 224.8 0 0 0 51.18-1.45l29.83-4.75 2.69-.38 2.61-.42.39-.15.59-.35h.22l.65.18h.29l.23-.1.18-.13.25-.26.71-1.57.64-1.59.77-1.62 1-2.38.81-1.66.18-.27.66-.28.14-.12.18-.27.08-.27v-.71l-.08-.3z"></path></g></g></svg>